<svg xmlns="http://www.w3.org/2000/svg" width="27px" height="27px" viewBox="0 0 27 27" version="1.1">
<path fill="#fff" fill-rule="evenodd" d="M 24.484375 13.5 C 24.484375 19.558594 19.558594 24.484375 13.5 24.484375 C 7.441406 24.484375 2.515625 19.558594 2.515625 13.5 C 2.515625 7.441406 7.445312 2.515625 13.5 2.515625 C 19.558594 2.515625 24.484375 7.441406 24.484375 13.5 Z M 13.5 1.046875 C 6.632812 1.046875 1.046875 6.632812 1.046875 13.5 C 1.046875 20.367188 6.632812 25.953125 13.5 25.953125 C 20.367188 25.953125 25.953125 20.367188 25.953125 13.5 C 25.953125 6.632812 20.367188 1.046875 13.5 1.046875 Z M 13.5 1.046875 "/>
<path fill="#fff" fill-rule="evenodd" d="M 8.453125 2.820312 C 8.539062 2.925781 17.179688 13.507812 17.597656 24.15625 L 19.066406 24.097656 C 18.628906 12.949219 9.957031 2.332031 9.585938 1.886719 Z M 8.453125 2.820312 "/>
<path fill="#fff" fill-rule="evenodd" d="M 1.523438 12.082031 C 1.652344 12.117188 14.152344 15.484375 21.988281 5.621094 L 20.835938 4.707031 C 13.601562 13.8125 2.039062 10.699219 1.921875 10.664062 Z M 1.523438 12.082031 "/>
<path fill="#fff" fill-rule="evenodd" d="M 6.117188 22.507812 C 6.375 22.007812 12.609375 10.3125 24.746094 15.023438 L 25.277344 13.652344 C 11.902344 8.460938 4.882812 21.699219 4.808594 21.832031 Z M 6.117188 22.507812 "/>
</svg>
