<svg xmlns="http://www.w3.org/2000/svg" width="24px" height="24px" viewBox="0 0 24 24" version="1.1">
<path fill="#fff" fill-rule="evenodd" d="M 21.226562 8.019531 C 21.226562 7.363281 20.996094 6.804688 20.539062 6.34375 C 20.078125 5.886719 19.519531 5.65625 18.863281 5.65625 L 18.078125 5.65625 L 18.078125 10.382812 L 18.863281 10.382812 C 19.519531 10.382812 20.078125 10.152344 20.539062 9.691406 C 20.996094 9.234375 21.226562 8.675781 21.226562 8.019531 Z M 0.746094 17.472656 L 22.804688 17.472656 C 22.804688 18.339844 22.496094 19.082031 21.878906 19.699219 C 21.265625 20.316406 20.523438 20.621094 19.652344 20.621094 L 3.898438 20.621094 C 3.027344 20.621094 2.285156 20.316406 1.671875 19.699219 C 1.054688 19.082031 0.746094 18.339844 0.746094 17.472656 Z M 23.589844 8.019531 C 23.589844 9.324219 23.128906 10.4375 22.207031 11.359375 C 21.28125 12.285156 20.167969 12.746094 18.863281 12.746094 L 18.078125 12.746094 L 18.078125 13.140625 C 18.078125 13.894531 17.804688 14.542969 17.265625 15.082031 C 16.722656 15.625 16.074219 15.894531 15.320312 15.894531 L 6.65625 15.894531 C 5.902344 15.894531 5.253906 15.625 4.710938 15.082031 C 4.167969 14.542969 3.898438 13.894531 3.898438 13.140625 L 3.898438 4.082031 C 3.898438 3.867188 3.976562 3.683594 4.132812 3.527344 C 4.289062 3.371094 4.472656 3.292969 4.6875 3.292969 L 18.863281 3.292969 C 20.167969 3.292969 21.28125 3.753906 22.207031 4.675781 C 23.128906 5.601562 23.589844 6.714844 23.589844 8.019531 Z M 23.589844 8.019531 "/>
</svg>
