<svg xmlns="http://www.w3.org/2000/svg" width="30px" height="29px" viewBox="0 0 30 29" version="1.1">
<path fill="#fff" fill-rule="evenodd" d="M 0.808594 20.925781 C 3.351562 17.324219 8.265625 17.023438 10.6875 17.351562 C 10.015625 16.625 8.316406 15.277344 9.515625 13.050781 C 4.050781 13.726562 2.304688 10.351562 2.054688 7.699219 C 1.554688 3.25 5.449219 0.0507812 9.441406 0 L 18.273438 0 C 17.972656 0.277344 16.5 1.25 16.152344 1.25 L 13.832031 1.277344 C 19.746094 6.851562 14.007812 11.527344 12.832031 12.5 C 10.460938 15.375 17.898438 16.800781 17.5 21.675781 C 17.5 26.097656 13.78125 29 7.96875 29 C 1.503906 28.976562 -1.585938 24.949219 0.808594 20.925781 Z M 13.757812 26.300781 C 16.078125 24.523438 15.527344 21.898438 13.730469 20.148438 C 12.660156 19.101562 11.363281 18.101562 8.617188 18.425781 C 5.398438 18.800781 3.050781 20.351562 3.175781 22.773438 C 3.851562 27.925781 11.261719 28.050781 13.757812 26.273438 Z M 12.183594 11.175781 C 14.855469 8.976562 12.382812 1.300781 8.742188 1.300781 C 6.421875 1.300781 5.222656 2.976562 5.125 5.351562 C 4.949219 9.75 8.964844 13.824219 12.183594 11.175781 Z M 23.988281 13.976562 L 19.96875 14 L 19.96875 11.976562 L 23.9375 11.976562 L 23.9375 8 L 25.957031 8 L 25.957031 11.976562 L 29.976562 12 L 30 14 L 25.957031 14 L 25.957031 18 L 23.960938 18.027344 Z M 23.988281 13.976562 "/>
</svg>
