<svg xmlns="http://www.w3.org/2000/svg" width="80pt" height="80pt" viewBox="0 0 80 80" version="1.1">
<path fill="#fff" fill-rule="evenodd" d="M 40 0 C 17.910156 0 0 17.910156 0 40 C 0 62.089844 17.910156 80 40 80 C 62.089844 80 80 62.089844 80 40 C 79.976562 17.917969 62.082031 0.0234375 40 0 Z M 40 75.398438 C 20.449219 75.398438 4.601562 59.550781 4.601562 40 C 4.601562 20.449219 20.449219 4.601562 40 4.601562 C 59.550781 4.601562 75.398438 20.449219 75.398438 40 C 75.375 59.539062 59.539062 75.375 40 75.398438 Z M 40 75.398438 "/>
<path fill="#fff" fill-rule="evenodd" d="M 57.496094 38.160156 L 34.476562 20.890625 C 33.777344 20.367188 32.84375 20.285156 32.0625 20.675781 C 31.285156 21.066406 30.789062 21.863281 30.789062 22.734375 L 30.789062 57.265625 C 30.789062 58.136719 31.285156 58.933594 32.0625 59.324219 C 32.84375 59.714844 33.777344 59.632812 34.476562 59.109375 L 57.496094 41.839844 C 58.074219 41.40625 58.417969 40.726562 58.417969 40 C 58.417969 39.273438 58.074219 38.59375 57.496094 38.160156 Z M 35.398438 52.664062 L 35.398438 27.335938 L 52.273438 40 Z M 35.398438 52.664062 "/>
</svg>