<svg xmlns="http://www.w3.org/2000/svg" width="30px" height="30px" viewBox="0 0 30 30" version="1.1">
<path fill="#fff" fill-rule="evenodd" d="M 26.558594 8.773438 C 26.582031 9.035156 26.582031 9.296875 26.582031 9.558594 C 26.582031 17.585938 20.476562 26.820312 9.320312 26.820312 C 5.882812 26.820312 2.683594 25.828125 0 24.101562 C 0.484375 24.15625 0.957031 24.175781 1.464844 24.175781 C 4.300781 24.175781 6.914062 23.222656 8.996094 21.585938 C 6.328125 21.527344 4.09375 19.78125 3.324219 17.378906 C 3.699219 17.429688 4.078125 17.46875 4.472656 17.46875 C 5.019531 17.46875 5.558594 17.394531 6.066406 17.261719 C 3.285156 16.699219 1.203125 14.253906 1.203125 11.308594 L 1.203125 11.234375 C 2.011719 11.6875 2.953125 11.964844 3.949219 12.003906 C 2.3125 10.917969 1.242188 9.050781 1.242188 6.953125 C 1.242188 5.820312 1.542969 4.789062 2.066406 3.886719 C 5.050781 7.570312 9.542969 9.976562 14.578125 10.238281 C 14.488281 9.785156 14.425781 9.320312 14.425781 8.851562 C 14.425781 5.503906 17.132812 2.78125 20.492188 2.78125 C 22.242188 2.78125 23.824219 3.515625 24.925781 4.695312 C 26.296875 4.433594 27.617188 3.925781 28.78125 3.230469 C 28.324219 4.640625 27.371094 5.820312 26.113281 6.578125 C 27.332031 6.445312 28.519531 6.105469 29.605469 5.636719 C 28.78125 6.839844 27.746094 7.910156 26.558594 8.773438 Z M 26.558594 8.773438 "/>
</svg>
